<svg xmlns="http://www.w3.org/2000/svg" viewBox="0 0 368.4 357.89">
  <path fill="#72A1B6" d="M193.59 174.64a12.95 12.95 0 1 1-13.65 12.2 12.95 12.95 0 0 1 13.65-12.2ZM142.65 254a1.69 1.69 0 0 1 2.24-1c69.7 28.38 115.84 25.41 142.33 17.87 35.42-10.08 59-33.32 72.63-72.35a1.44 1.44 0 0 0-1.84-1.81c-1 .34-18.83 5-26.61 5q-21.51 0-44.08-12.21c-18.59-10.07-36-25.66-51.64-43.88 17.72-11.32 76-50.76 87.44-89.38a1.61 1.61 0 0 0-2.58-1.66c-33 27.64-86.64 40.93-120.49 40-20.36-35.5-33.29-71.46-35-93.11a1.68 1.68 0 0 0-2.4-1.38c-14 6.77-34.5 10.31-50.58 10.53A101.65 101.65 0 0 1 66.64.72a1.68 1.68 0 0 0-2.34 1 101.48 101.48 0 0 1-24 39.86A101.54 101.54 0 0 1 1.13 66.67 1.69 1.69 0 0 0 .19 69a101.48 101.48 0 0 1 11.23 45.15 101.64 101.64 0 0 1-10.27 46.1 1.65 1.65 0 0 0 .38 2c3.08 2.69 12.77 11.15 16.34 14.38a422.23 422.23 0 0 0 58.89 44L36.38 326.08v.09L25 355.57a1.7 1.7 0 0 0 1.59 2.32H89.8a1.72 1.72 0 0 0 1.7-1.66 36.05 36.05 0 0 1 72 0 1.71 1.71 0 0 0 1.69 1.66h62.93a1.71 1.71 0 0 0 1.69-1.66 36.05 36.05 0 0 1 72 0 1.71 1.71 0 0 0 1.69 1.66h63.16a1.89 1.89 0 0 0 1.44-2.8c-7.75-13.31-41.54-70.44-46.83-79.53a1.05 1.05 0 0 0-1.47-.37 118.11 118.11 0 0 1-28.74 12.39c-16.12 4.62-33 6.13-49.84 5.51-36-1.32-75-12-102.63-23.15a1.7 1.7 0 0 1-1-2.16l5-13.74" />
  <path fill="#72A1B6" d="M247.66 111.64c.43.23.85.47 1.28.69 14.16-11.76 28.89-26.93 33.31-41.91a1.1 1.1 0 0 0-1.77-1.14C266 81.45 245.58 89.56 226.7 93.64a123.06 123.06 0 0 0 21 18" />
</svg>
